<svg width="16" height="16" viewBox="0 0 16 16" fill="none" xmlns="http://www.w3.org/2000/svg">
<g clip-path="url(#clip0_1475_43897)">
<path d="M9.33594 1.33325H6.66927C4.48312 1.33325 3.39004 1.33325 2.61521 1.8758C2.32854 2.07652 2.07921 2.32586 1.87848 2.61252C1.33594 3.38736 1.33594 4.48043 1.33594 6.66659C1.33594 8.85274 1.33594 9.94582 1.87848 10.7206C2.07921 11.0073 2.32854 11.2566 2.61521 11.4574C3.39004 11.9999 4.48312 11.9999 6.66927 11.9999H9.33594C11.5221 11.9999 12.6152 11.9999 13.39 11.4574C13.6767 11.2566 13.926 11.0073 14.1267 10.7206C14.6693 9.94582 14.6693 8.85274 14.6693 6.66659C14.6693 4.48043 14.6693 3.38736 14.1267 2.61252C13.926 2.32586 13.6767 2.07652 13.39 1.8758C12.6152 1.33325 11.5221 1.33325 9.33594 1.33325Z" stroke="#00005E" stroke-linecap="round"/>
<path d="M9.66927 14.6665L9.45894 14.3873C8.98478 13.7578 8.86723 12.7961 9.16712 11.9999M6.33594 14.6665L6.54627 14.3873C7.02043 13.7578 7.13797 12.7961 6.83809 11.9999" stroke="#00005E" stroke-linecap="round"/>
<path d="M4.66797 14.6666H11.3346" stroke="#00005E" stroke-linecap="round"/>
<path d="M5.33594 9.33321C6.56158 7.60297 9.4151 7.50852 10.6693 9.33321M9.33594 5.33321C9.33594 6.06959 8.73898 6.66654 8.0026 6.66654C7.26622 6.66654 6.66927 6.06959 6.66927 5.33321C6.66927 4.59683 7.26622 3.99988 8.0026 3.99988C8.73898 3.99988 9.33594 4.59683 9.33594 5.33321Z" stroke="#00005E" stroke-linecap="round"/>
</g>
<defs>
<clipPath id="clip0_1475_43897">
<rect width="16" height="16" fill="white"/>
</clipPath>
</defs>
</svg>
