<svg width="24" height="24" viewBox="0 0 24 24" fill="none" xmlns="http://www.w3.org/2000/svg">
<path fill-rule="evenodd" clip-rule="evenodd" d="M10.598 12.739L10.598 2.22876C10.598 1.81414 10.2813 1.47542 9.89195 1.50304C9.53607 1.52829 9.18219 1.57257 8.83164 1.63553C7.70642 1.83763 6.61539 2.23222 5.60212 2.80771C4.06507 3.68068 2.75435 4.94297 1.78608 6.48275C0.817807 8.02253 0.221863 9.79228 0.0510345 11.6352C-0.119794 13.4782 0.139767 15.3375 0.806726 17.0484C1.47368 18.7593 2.52745 20.2691 3.87469 21.4439C5.22193 22.6187 6.82105 23.4223 8.53041 23.7836C10.2398 24.1449 12.0066 24.0527 13.6744 23.5151C14.7739 23.1607 15.8079 22.62 16.7381 21.9175C17.0278 21.6986 17.3075 21.464 17.576 21.2145C17.8697 20.9415 17.8682 20.4641 17.5923 20.1709L10.598 12.739ZM15.4677 20.5677L9.03858 13.7363C8.90608 13.5955 8.83164 13.4046 8.83164 13.2055L8.83164 3.54446C7.99812 3.72524 7.19049 4.03371 6.43476 4.46293C5.15388 5.19041 4.06162 6.24231 3.25473 7.52546C2.44783 8.80861 1.95121 10.2834 1.80886 11.8192C1.6665 13.355 1.8828 14.9044 2.4386 16.3302C2.9944 17.7559 3.87254 19.014 4.99524 19.9931C6.11794 20.9721 7.45054 21.6418 8.875 21.9429C10.2995 22.2439 11.7718 22.1671 13.1617 21.7191C13.9817 21.4548 14.758 21.0661 15.4677 20.5677Z" fill="#000"/>
<path fill-rule="evenodd" clip-rule="evenodd" d="M21.5835 16.7055C21.7997 16.1508 21.9648 15.5767 22.0773 14.9912H17.6884L20.7918 18.2888C21.1019 17.7903 21.3672 17.2603 21.5835 16.7055ZM22.0622 19.6386C21.856 19.9467 21.6353 20.2439 21.4006 20.529C21.1436 20.841 20.6943 20.8394 20.4184 20.5463L14.0272 13.7552C13.8046 13.5187 13.9622 13.1144 14.277 13.1144H23.3155C23.7057 13.1144 24.0245 13.4509 23.9985 13.8646C23.9748 14.2425 23.9331 14.6185 23.8738 14.9912C23.7414 15.8238 23.5209 16.6399 23.2153 17.4238C22.9098 18.2076 22.5226 18.9503 22.0622 19.6386Z" fill="#000"/>
<path fill-rule="evenodd" clip-rule="evenodd" d="M15.3908 2.56772C14.8687 2.33795 14.3284 2.1625 13.7774 2.04299V9.36072L20.6642 9.36072C20.5518 8.77524 20.3866 8.20111 20.1704 7.64639C19.7266 6.50785 19.076 5.47335 18.2559 4.60195C17.4358 3.73055 16.4623 3.03932 15.3908 2.56772ZM22.4608 9.36072C22.3283 8.52811 22.1078 7.71199 21.8023 6.92816C21.2697 5.56191 20.489 4.32051 19.5049 3.27483C18.5208 2.22915 17.3525 1.39967 16.0667 0.833755C15.329 0.509081 14.5609 0.274805 13.7774 0.134067C13.4266 0.0710662 13.0727 0.0268092 12.717 0.00157778C12.3277 -0.0260428 12.011 0.312678 12.011 0.727296V10.4868C12.011 10.9014 12.3274 11.2375 12.7176 11.2375L21.9025 11.2376C22.2927 11.2376 22.6114 10.9011 22.5855 10.4874C22.5617 10.1095 22.5201 9.73344 22.4608 9.36072Z" fill="#000"/>
</svg>
